HIERARCHY
ROOT Hips
{
 OFFSET 0.000000 0.000000 0.000000
 CHANNELS 6 Xposition Yposition Zposition Yrotation Xrotation Zrotation
 JOINT Chest
 {
  OFFSET 0.000000 9.303000 0.001900
  CHANNELS 3 Yrotation Xrotation Zrotation
  JOINT Chest2
  {
   OFFSET 0.000000 9.301100 -0.003900
   CHANNELS 3 Yrotation Xrotation Zrotation
   JOINT Chest3
   {
    OFFSET 0.000000 9.262800 0.000000
    CHANNELS 3 Yrotation Xrotation Zrotation
    JOINT Chest4
    {
     OFFSET 0.000000 9.253300 0.000000
     CHANNELS 3 Yrotation Xrotation Zrotation
     JOINT Neck
     {
      OFFSET 0.000000 14.010300 0.000000
      CHANNELS 3 Yrotation Xrotation Zrotation
      JOINT Head
      {
       OFFSET 0.000000 8.657600 -0.008300
       CHANNELS 3 Yrotation Xrotation Zrotation
       End Site
       {
        OFFSET 0.000000 16.540200 -0.004400
       }
      }
     }
     JOINT RightCollar
     {
      OFFSET -2.834100 9.267700 0.000000
      CHANNELS 3 Yrotation Xrotation Zrotation
      JOINT RightShoulder
      {
       OFFSET -13.135200 0.000000 0.000000
       CHANNELS 3 Yrotation Xrotation Zrotation
       JOINT RightElbow
       {
        OFFSET 0.000000 -28.893500 0.000000
        CHANNELS 3 Yrotation Xrotation Zrotation
        JOINT RightWrist
        {
         OFFSET 0.000000 -23.344000 0.000000
         CHANNELS 3 Yrotation Xrotation Zrotation
         End Site
         {
          OFFSET 0.000000 -17.223000 0.000000
         }
        }
       }
      }
     }
     JOINT LeftCollar
     {
      OFFSET 2.834100 9.267700 0.000000
      CHANNELS 3 Yrotation Xrotation Zrotation
      JOINT LeftShoulder
      {
       OFFSET 13.135200 0.000000 0.000000
       CHANNELS 3 Yrotation Xrotation Zrotation
       JOINT LeftElbow
       {
        OFFSET 0.000000 -28.893500 0.000000
        CHANNELS 3 Yrotation Xrotation Zrotation
        JOINT LeftWrist
        {
         OFFSET 0.000000 -23.344000 0.000000
         CHANNELS 3 Yrotation Xrotation Zrotation
         End Site
         {
          OFFSET 0.000000 -17.223000 0.000000
         }
        }
       }
      }
     }
    }
   }
  }
 }
 JOINT RightHip
 {
  OFFSET -7.547200 -0.009500 -0.001000
  CHANNELS 3 Yrotation Xrotation Zrotation
  JOINT RightKnee
  {
   OFFSET 0.000000 -39.762800 0.000900
   CHANNELS 3 Yrotation Xrotation Zrotation
   JOINT RightAnkle
   {
    OFFSET 0.000000 -38.588200 0.001600
    CHANNELS 3 Yrotation Xrotation Zrotation
    JOINT RightToe
    {
     OFFSET 0.000000 -4.693300 10.419700
     CHANNELS 3 Yrotation Xrotation Zrotation
     End Site
     {
      OFFSET 0.000000 -1.379900 5.669300
     }
    }
   }
  }
 }
 JOINT LeftHip
 {
  OFFSET 7.547200 -0.009500 -0.001000
  CHANNELS 3 Yrotation Xrotation Zrotation
  JOINT LeftKnee
  {
   OFFSET 0.000000 -39.762800 0.000900
   CHANNELS 3 Yrotation Xrotation Zrotation
   JOINT LeftAnkle
   {
    OFFSET 0.000000 -38.588200 0.001600
    CHANNELS 3 Yrotation Xrotation Zrotation
    JOINT LeftToe
    {
     OFFSET 0.000000 -4.693300 10.419700
     CHANNELS 3 Yrotation Xrotation Zrotation
     End Site
     {
      OFFSET 0.000000 -1.379900 5.669300
     }
    }
   }
  }
 }
}
MOTION
Frames: 9
Frame Time: 0.008333
0.000000 82.880600 0.000000 0.000000 -5.767877 0.000000 0.000000 11.653817 0.000000 0.000000 -5.885947 0.000000 0.000000 -0.000000 0.000000 0.000000 -0.000000 0.000000 0.000000 12.528835 0.000000 0.000000 0.711642 0.000000 0.000000 -0.000000 0.000000 0.000000 0.000000 -90.000000 0.000000 -2.309062 0.000000 0.000000 2.309062 0.000000 0.000000 -0.000000 0.000000 0.000000 -0.000000 90.000000 0.000000 -2.309062 0.000000 0.000000 2.309062 0.000000 0.000000 8.520406 0.000000 0.000000 1.905762 0.000000 -0.000000 -4.658285 0.000000 0.000000 -0.000000 0.000000 0.000000 8.520406 0.000000 0.000000 1.905762 0.000000 -0.000000 -4.658285 0.000000 0.000000 -0.000000 0.000000
5.502289 45.974540 4.511041 160.158034 -11.823836 0.169439 3.691496 7.179753 -0.061336 0.157246 0.337238 -0.004679 0.274874 0.589628 -0.007506 3.151903 6.744595 0.088209 -0.621803 20.163966 0.491901 -0.790705 -4.388055 0.695485 1.054266 5.542777 -5.885661 -3.338185 -4.687345 -1.003000 -59.664086 -84.902593 78.080390 -8.216443 -7.250945 -29.624968 -9.224698 3.947463 -3.243242 14.710730 -6.379538 8.261337 61.849861 -68.016764 -88.711911 7.851711 -3.796884 16.253114 -18.775188 -76.042404 17.970424 -122.551541 83.718990 -123.895399 -9.387333 -9.621109 -0.176192 -0.016797 -0.380109 0.076715 -8.597622 -74.106680 31.597168 86.919502 76.086531 85.601454 -9.816665 -7.392743 -1.104324 0.382867 0.439475 0.188690
5.495609 45.975702 4.511065 160.145539 -11.788919 0.167769 3.691776 7.150708 -0.056836 0.166167 0.332126 -0.007416 0.274409 0.588509 -0.007099 3.145637 6.732734 0.097039 -0.626889 20.163641 0.506318 -0.801611 -4.366430 0.712926 1.038573 5.525792 -5.877189 -3.362772 -4.714574 -0.940672 -59.915108 -84.954911 78.367999 -8.211875 -7.208026 -29.630998 -9.213387 3.913937 -3.230206 14.692449 -6.360491 8.284379 61.832409 -68.052412 -88.742936 7.824410 -3.786783 16.220139 -18.820891 -76.062323 18.006271 -122.533800 83.755533 -123.877376 -9.324138 -9.610495 -0.202592 -0.023165 -0.376741 0.083948 -8.402425 -74.176207 31.457643 86.951944 76.092659 85.648030 -9.812751 -7.404532 -1.045815 0.347812 0.437994 0.177402
5.489021 45.977347 4.509040 160.145809 -11.764002 0.163567 3.680299 7.131247 -0.051052 0.160156 0.330776 -0.008359 0.273610 0.584770 -0.005903 3.154510 6.721534 0.100982 -0.634655 20.166306 0.516571 -0.792098 -4.356607 0.693505 1.026551 5.479201 -5.854262 -3.365646 -4.697183 -0.912807 -60.361659 -84.998531 78.834555 -8.225484 -7.296047 -29.614355 -9.190816 3.864374 -3.207145 14.666158 -6.324748 8.305001 61.818483 -68.082491 -88.770057 7.822014 -3.782803 16.212702 -18.811236 -76.077063 17.983501 -122.490113 83.776674 -123.819344 -9.331041 -9.605181 -0.207566 0.040078 -0.365260 0.071902 -8.338391 -74.217994 31.417585 86.975914 76.096922 85.673968 -9.810081 -7.396897 -1.022615 0.332185 0.425376 0.177028
5.480399 45.978186 4.510218 160.154870 -11.714365 0.162323 3.667320 7.083003 -0.053370 0.155375 0.330474 -0.002482 0.272686 0.575965 -0.001637 3.154238 6.704005 0.109591 -0.657290 20.181146 0.532010 -0.789826 -4.333389 0.670783 1.030515 5.497815 -5.870320 -3.380763 -4.713974 -0.871182 -60.928215 -85.030483 79.414081 -8.221723 -7.278050 -29.609912 -9.158025 3.814575 -3.186794 14.626154 -6.307417 8.361139 61.776920 -68.057942 -88.757905 7.824509 -3.784915 16.208799 -18.642760 -76.122798 17.783869 -122.377402 83.802931 -123.638653 -9.337545 -9.610702 -0.215051 -0.002795 -0.337861 0.045198 -8.328911 -74.275576 31.414342 87.002724 76.093023 85.686061 -9.796889 -7.391992 -1.007860 0.303059 0.419487 0.179838
5.474826 45.979431 4.509338 160.165907 -11.682542 0.149916 3.659469 7.048500 -0.041036 0.151889 0.332058 -0.005941 0.273535 0.573105 0.000755 3.150027 6.678564 0.124798 -0.670071 20.210346 0.531805 -0.807416 -4.310624 0.669599 1.024589 5.498475 -5.869786 -3.372779 -4.695005 -0.876935 -61.279111 -85.040898 79.769314 -8.223209 -7.275507 -29.601293 -9.125537 3.785388 -3.164198 14.589583 -6.302928 8.409866 61.733004 -68.036598 -88.741080 7.831644 -3.797062 16.210641 -18.601841 -76.148228 17.725006 -122.148994 83.795058 -123.378835 -9.342526 -9.592672 -0.217271 -0.014835 -0.344950 0.041798 -8.290092 -74.324207 31.399303 87.006430 76.107834 85.690549 -9.804628 -7.383812 -0.983210 0.303852 0.410828 0.179237
5.471560 45.980669 4.507884 160.186205 -11.658275 0.128073 3.649468 7.020127 -0.018902 0.149136 0.330863 -0.004008 0.270517 0.573474 -0.001929 3.150954 6.653798 0.144267 -0.691933 20.243497 0.527203 -0.858817 -4.238400 0.692816 1.004157 5.461764 -5.847655 -3.357686 -4.662545 -0.865740 -61.764274 -85.076010 80.276108 -8.219580 -7.251696 -29.599403 -9.093352 3.756873 -3.137756 14.564521 -6.348720 8.518159 61.636835 -67.928261 -88.690787 7.842367 -3.812024 16.220651 -18.601574 -76.162615 17.698222 -121.825316 83.757427 -123.025559 -9.308095 -9.584702 -0.225344 0.011525 -0.344070 0.038648 -8.323988 -74.356192 31.434698 87.001977 76.118278 85.689157 -9.806393 -7.381164 -0.969883 0.302007 0.408670 0.173803
5.466417 45.981896 4.504412 160.219981 -11.640965 0.124082 3.626730 7.003454 -0.019681 0.140296 0.323902 -0.002330 0.269964 0.569508 -0.000566 3.170316 6.592135 0.177710 -0.736150 20.324601 0.508105 -0.898707 -4.174866 0.708096 0.976694 5.516282 -5.871358 -3.353021 -4.670186 -0.826482 -62.179190 -85.097947 80.719109 -8.214287 -7.222114 -29.614119 -9.069558 3.768906 -3.126456 14.539367 -6.353999 8.583243 61.572909 -67.869764 -88.670483 7.853551 -3.824379 16.233574 -18.546389 -76.175959 17.611715 -121.661180 83.742796 -122.832616 -9.398065 -9.584226 -0.219435 -0.018845 -0.331731 0.021773 -8.319911 -74.380192 31.408086 87.001663 76.123122 85.684116 -9.800866 -7.372175 -0.954378 0.297807 0.401240 0.165866
5.462955 45.982729 4.502420 160.251244 -11.617081 0.113136 3.610507 6.983623 -0.013428 0.141129 0.317241 -0.000830 0.268699 0.564717 0.000703 3.168900 6.574372 0.186630 -0.757441 20.355407 0.505531 -0.938912 -4.113469 0.731212 0.963321 5.522711 -5.872822 -3.329888 -4.696864 -0.763487 -61.891243 -85.126459 80.445508 -8.213990 -7.215818 -29.613884 -9.023932 3.736378 -3.081793 14.507824 -6.341349 8.624877 61.514575 -67.820679 -88.646632 7.846530 -3.834460 16.245276 -18.560563 -76.191905 17.601783 -121.498445 83.731014 -122.649303 -9.500807 -9.579608 -0.209900 -0.051174 -0.332658 0.011698 -8.202447 -74.433329 31.306259 86.965743 76.159412 85.669311 -9.814500 -7.364696 -0.930670 0.306363 0.394681 0.162143
